<?xml version="1.0" encoding="UTF-8"?><svg id="Outline" xmlns="http://www.w3.org/2000/svg" viewBox="0 0 1000 1000"><defs><style>.cls-1{fill:#fff;stroke:#6fac22;}.cls-1,.cls-2{stroke-miterlimit:10;stroke-width:20px;}.cls-2{fill:#899942;stroke:#899942;}.cls-3{fill:#c8d0a4;stroke-width:0px;}</style></defs><polygon class="cls-1" points="524.03 53.82 145.84 302.07 143.7 695.24 482.76 893.05 483.68 946.25 869.26 676.44 865.59 311.39 524.64 114.66 524.03 53.82"/><polygon class="cls-2" points="190.94 353.51 191.62 652.29 455.55 501.64 190.94 353.51"/><polygon class="cls-2" points="223.79 689.43 480.34 836.52 480.07 538.37 223.79 689.43"/><polygon class="cls-2" points="526.17 838.63 793.63 676.29 526 538.35 526.17 838.63"/><polygon class="cls-2" points="479.84 165.25 480.34 462.89 211.57 312.92 479.84 165.25"/><polygon class="cls-2" points="526 177.48 526 467.32 792.12 324.1 526 177.48"/><polygon class="cls-2" points="821.18 643.11 820.52 358.63 557.28 502.9 821.18 643.11"/><polygon class="cls-3" points="181.66 669.48 203.89 689.55 490.05 520.88 475.86 501.54 181.66 669.48"/><polygon class="cls-3" points="489.83 148.36 515.97 160.52 516.03 484.07 490.37 479.97 489.83 148.36"/><polygon class="cls-3" points="831.19 659.71 814.01 675.58 515.99 521.94 536.23 502.97 831.19 659.71"/></svg>