<?xml version="1.0" encoding="UTF-8"?><svg xmlns="http://www.w3.org/2000/svg" viewBox="0 0 1000 1000"><defs><style>.cls-1{fill:#22adc1;}.cls-1,.cls-2{stroke-width:0px;}.cls-3{fill:none;stroke:#22adc1;stroke-miterlimit:10;stroke-width:60px;}.cls-2{fill:#90d7e2;}</style></defs><g id="Layer_2"><circle class="cls-3" cx="500.11" cy="500.33" r="386.93"/></g><g id="Layer_3"><path class="cls-2" d="M448.4,86.58c2.57,19.8,5.15,39.61,7.72,59.41,12.73-1.65,27.32-2.8,43.45-2.75,15.76.04,30.04,1.21,42.54,2.87,2.79-19.87,5.58-39.75,8.37-59.62-14.6-1.86-31.14-3.15-49.3-3.21-19.56-.07-37.29,1.3-52.78,3.3Z"/><path class="cls-2" d="M551.04,914.22c-2.57-19.8-6.4-39.72-8.97-59.53-29.33,3.48-56.72,3.42-84.74,0-2.79,19.87-5.58,39.75-8.37,59.62,14.6,1.86,31.14,3.15,49.3,3.21,19.56.07,37.29-1.3,52.78-3.3Z"/><polygon class="cls-1" points="327.48 309.94 327.6 674.99 415.08 674.99 415.08 527.78 532.36 527.66 532.36 465.06 415 465 414.96 380.22 544.63 380.11 535 309.94 327.48 309.94"/><path class="cls-1" d="M559.98,307.49l.07,315.04c.07,3.87.84,21.99,15.5,36.79,13.69,13.83,30.3,15.46,34.47,15.75,14.85.05,29.71.1,44.56.15,14.36-.06,28.72-.11,43.08-.17,1.62-8.61,3.16-17.42,4.61-26.43,2-12.34,3.72-24.4,5.22-36.14-21.66.01-43.32.03-64.98.04,0-101.68,0-203.35,0-305.03h-82.52Z"/></g></svg>