<?xml version="1.0" encoding="UTF-8"?>
<svg id="Layer_1" data-name="Layer 1" xmlns="http://www.w3.org/2000/svg" version="1.1" viewBox="0 0 144 144">
  <defs>
    <style>
      .cls-1 {
        fill-rule: evenodd;
        stroke: #fff;
        stroke-linecap: round;
        stroke-linejoin: round;
        stroke-width: 3px;
      }

      .cls-1, .cls-2 {
        fill: #fff;
      }

      .cls-2 {
        stroke-width: 0px;
      }
    </style>
  </defs>
  <path class="cls-2" d="M71.1,23.7c-26.1,0-47.3,21.2-47.3,47.3s21.2,47.3,47.3,47.3,47.3-21.2,47.3-47.3-21.2-47.3-47.3-47.3ZM71,27.9c1.7,0,3,1.4,3,3.1,0,1.7-1.4,3.1-3.1,3.1s-3.1-1.4-3.1-3.1c0-1.7,1.4-3.1,3.1-3.1,0,0,0,0,0,0ZM78.1,33c11.1,2.1,20.6,8.9,26.2,18.7l-3.7,8.3c-.6,1.4,0,3.1,1.4,3.8l7.1,3.1c.2,2.2.2,4.4,0,6.6h-3.9c-.4,0-.6.3-.6.6v1.8c0,4.2-2.4,5.2-4.5,5.4-2,.2-4.2-.8-4.5-2.1-1.2-6.6-3.1-8-6.2-10.5,3.8-2.4,7.8-6,7.8-10.9s-3.6-8.5-6-10.1c-3.4-2.2-7.2-2.7-8.2-2.7h-40.6c5.6-6.3,13.1-10.5,21.4-12.1l4.8,5c1.1,1.1,2.9,1.2,4,0l5.4-5.1ZM33.9,56c1.7,0,3,1.4,3,3.1,0,1.7-1.4,3.1-3.1,3.1-1.7,0-3.1-1.4-3.1-3.1,0-1.7,1.4-3.1,3.1-3.1,0,0,0,0,0,0ZM108.1,56.2c1.7,0,3,1.4,3,3.1,0,1.7-1.4,3.1-3.1,3.1s-3.1-1.4-3.1-3.1c0-1.7,1.4-3.1,3.1-3.1,0,0,0,0,0,0ZM39.8,56.7h5.4v24.4h-10.9c-1.4-4.7-1.8-9.7-1.2-14.6l6.7-3c1.4-.6,2.1-2.3,1.4-3.7l-1.4-3.1ZM62.4,56.9h12.9c.7,0,4.7.8,4.7,3.8s-3.1,3.4-5.7,3.4h-12v-7.2ZM62.4,74.5h9.9c.9,0,4.8.3,6.1,5.3.4,1.5,1.3,6.6,1.8,8.2.6,1.8,3,5.4,5.5,5.4h16.1c-1.1,1.4-2.3,2.8-3.5,4.1l-6.6-1.4c-1.5-.3-3,.7-3.4,2.2l-1.6,7.3c-10.2,4.6-21.8,4.5-31.9-.2l-1.6-7.3c-.3-1.5-1.8-2.5-3.4-2.2l-6.4,1.4c-1.2-1.2-2.3-2.5-3.3-3.9h31.3c.3,0,.6,0,.6-.4v-11.1c0-.3-.2-.4-.6-.4h-9.2v-7ZM48,99.8c1.7,0,3,1.4,3,3.1,0,1.7-1.4,3.1-3.1,3.1s-3.1-1.4-3.1-3.1c0-1.7,1.4-3.1,3.1-3.1,0,0,0,0,0,0ZM94,99.9c1.7,0,3,1.4,3,3.1,0,1.7-1.4,3.1-3.1,3.1s-3.1-1.4-3.1-3.1c0-1.7,1.4-3.1,3.1-3.1,0,0,0,0,0,0Z"/>
  <path class="cls-1" d="M115.7,70.9c0,24.6-20,44.6-44.6,44.6s-44.6-20-44.6-44.6h0c0-24.6,20-44.6,44.6-44.6s44.6,20,44.6,44.6h0ZM114.8,66.6l7,4.3-7,4.3,6,5.6-7.7,2.9,4.8,6.7-8.1,1.3,3.4,7.5-8.2-.3,1.9,8-8-1.9.3,8.2-7.5-3.4-1.3,8.1-6.7-4.8-2.9,7.7-5.6-6-4.3,7-4.3-7-5.6,6-2.9-7.7-6.7,4.8-1.3-8.1-7.5,3.4.3-8.2-8,1.9,1.9-8-8.2.3,3.4-7.5-8.1-1.3,4.8-6.7-7.7-2.9,6-5.6-7-4.3,7-4.3-6-5.6,7.7-2.9-4.8-6.7,8.1-1.3-3.4-7.5,8.2.3-1.9-8,8,1.9-.3-8.2,7.5,3.4,1.3-8.1,6.7,4.8,2.9-7.7,5.6,6,4.3-7,4.3,7,5.6-6,2.9,7.7,6.7-4.8,1.3,8.1,7.5-3.4-.3,8.2,8-1.9-1.9,8,8.2-.3-3.4,7.5,8.1,1.3-4.8,6.7,7.7,2.9-6,5.6Z"/>
</svg>